<?xml version="1.0" encoding="utf-8"?>
<!-- Generator: Adobe Illustrator 21.0.0, SVG Export Plug-In . SVG Version: 6.00 Build 0)  -->
<svg version="1.1" id="Layer_1" xmlns="http://www.w3.org/2000/svg" xmlns:xlink="http://www.w3.org/1999/xlink" x="0px" y="0px"
	 viewBox="0 0 200 200" style="enable-background:new 0 0 200 200;" xml:space="preserve">
<circle cx="139.5" cy="59" r="28.5"/>
<circle cx="58.5" cy="45" r="28.5"/>
<path d="M72,182.5H39c-8.2,0-15-6.8-15-15v-71c0-8.2,6.8-15,15-15h33c8.2,0,15,6.8,15,15v71C87,175.8,80.2,182.5,72,182.5z"/>
<path d="M95.5,116.2l-1.3-4.4c-1.5-5.1,1.4-10.4,6.4-11.9l32.4-9.7c5.1-1.5,10.4,1.4,11.9,6.4l1.3,4.4c1.5,5.1-1.4,10.4-6.4,11.9
	l-32.4,9.7C102.4,124.1,97,121.2,95.5,116.2z"/>
<path d="M67.5,94l1.5-3c2.7-5.5,9.4-7.8,15-5.1L110.7,99c5.5,2.7,7.8,9.4,5.1,15l-1.5,3c-2.7,5.5-9.4,7.8-15,5.1L72.6,109
	C67.1,106.2,64.8,99.5,67.5,94z"/>
<path d="M121,123.7 M150,97.8 M149.9,97.5H161c8.2,0,15,6.8,15,15v56c0,8.2-6.8,15-15,15h-25c-8.2,0-15-6.8-15-15V124l0-0.3
	l22.7-6.8c2.9-0.9,5.3-2.8,6.8-5.5c1.5-2.7,1.8-5.8,0.9-8.7c0,0-1.4-4.9-1.4-4.8"/>
</svg>
