<?xml version="1.0" encoding="UTF-8" standalone="no"?>
<svg
   xmlns:dc="http://purl.org/dc/elements/1.1/"
   xmlns:cc="http://creativecommons.org/ns#"
   xmlns:rdf="http://www.w3.org/1999/02/22-rdf-syntax-ns#"
   xmlns:svg="http://www.w3.org/2000/svg"
   xmlns="http://www.w3.org/2000/svg"
   viewBox="0 0 176 338.66666"
   height="338.66666"
   width="176"
   xml:space="preserve"
   id="svg2"
   version="1.1"><metadata
     id="metadata8"><rdf:RDF><cc:Work
         rdf:about=""><dc:format>image/svg+xml</dc:format><dc:type
           rdf:resource="http://purl.org/dc/dcmitype/StillImage" /></cc:Work></rdf:RDF></metadata><defs
     id="defs6"><clipPath
       id="clipPath20"
       clipPathUnits="userSpaceOnUse"><path
         style="clip-rule:evenodd"
         id="path18"
         d="m 745.953,1929.43 c 1.633,-2.83 2.598,-6.09 2.672,-9.58 l 5.172,-245.87 h -0.109 c 2.148,-102.22 -69.106,-188.92 -165.461,-209.69 h 9.984 V 116.215 h -170 V 1464.29 h 8.602 c -94.891,22.73 -166.348,107.1 -168.551,209.22 -0.032,1.58 -0.051,3.17 -0.051,4.74 v 241.18 508.29 h 90 v -488.29 h 110 v 497.24 h 90 v -497.24 h 100 v 498.29 h 90 v -508.29 z" /></clipPath><clipPath
       id="clipPath26"
       clipPathUnits="userSpaceOnUse"><path
         id="path24"
         d="M 0,0 H 1320 V 2540 H 0 Z" /></clipPath><clipPath
       id="clipPath36"
       clipPathUnits="userSpaceOnUse"><path
         style="clip-rule:evenodd"
         id="path34"
         d="M 850.902,2453.39 850,2454.94 V 116.215 h 136.27 l 17.71,924.635 c 13.9,25.08 21.82,53.94 21.82,84.65 v 0 1154.47 c 0,96.59 -78.304,174.9 -174.898,174.9 v 0 z" /></clipPath><clipPath
       id="clipPath42"
       clipPathUnits="userSpaceOnUse"><path
         id="path40"
         d="M 0,0 H 1320 V 2540 H 0 Z" /></clipPath></defs><g
     transform="matrix(1.3333333,0,0,-1.3333333,0,338.66667)"
     id="g10"><g
       transform="scale(0.1)"
       id="g12"><g
         id="g14"><g
           clip-path="url(#clipPath20)"
           id="g16"><g
             clip-path="url(#clipPath26)"
             id="g22"><path
               id="path28"
               style="fill:#000000;fill-opacity:1;fill-rule:nonzero;stroke:none"
               d="m 218.211,66.2148 h 585.586 v 2421.5 H 218.211 Z" /></g></g></g><g
         id="g30"><g
           clip-path="url(#clipPath36)"
           id="g32"><g
             clip-path="url(#clipPath42)"
             id="g38"><path
               id="path44"
               style="fill:#000000;fill-opacity:1;fill-rule:nonzero;stroke:none"
               d="m 800,66.2148 h 275.797 v 2438.73 H 800 Z" /></g></g></g></g></g></svg>