<?xml version="1.0" encoding="UTF-8" standalone="no"?>
<svg
   xmlns:dc="http://purl.org/dc/elements/1.1/"
   xmlns:cc="http://creativecommons.org/ns#"
   xmlns:rdf="http://www.w3.org/1999/02/22-rdf-syntax-ns#"
   xmlns:svg="http://www.w3.org/2000/svg"
   xmlns="http://www.w3.org/2000/svg"
   viewBox="0 0 168 154.66667"
   height="154.66667"
   width="168"
   xml:space="preserve"
   id="svg2"
   version="1.1"><metadata
     id="metadata8"><rdf:RDF><cc:Work
         rdf:about=""><dc:format>image/svg+xml</dc:format><dc:type
           rdf:resource="http://purl.org/dc/dcmitype/StillImage" /></cc:Work></rdf:RDF></metadata><defs
     id="defs6"><clipPath
       id="clipPath20"
       clipPathUnits="userSpaceOnUse"><path
         id="path18"
         d="M 0,0 H 1260 V 1160 H 0 Z" /></clipPath><clipPath
       id="clipPath26"
       clipPathUnits="userSpaceOnUse"><path
         style="clip-rule:evenodd"
         id="path24"
         d="M -468.148,777.535 660.195,1867.17 1716.08,773.77 587.73,-315.859 Z M 1098.6,492.137 l 0.94,-0.965 17.98,17.367 -17.37,17.981 -523.779,-505.8091 35.348,-0.6171 -475.387,492.2772 -1.043,1.02 c -4.922,4.535 -9.723,9.222 -14.398,14.066 -4.68,4.844 -9.2,9.809 -13.559,14.883 l -0.98,1.078 -0.442,0.457 -17.9842,-17.367 18.9962,16.25 C -9.23438,678.551 0.0976563,882.18 129.258,1006.91 c 129.16,124.73 332.988,126.94 464.609,6.09 l 17.344,-15.918 16.934,16.358 0.929,0.9 -17.367,17.98 -17.98,-17.37 0.308,-0.32 18.621,-19.282 17.942,19.922 c 5.336,5.93 10.898,11.69 16.679,17.27 134.707,130.09 349.364,126.34 479.453,-8.37 130.08,-134.705 126.33,-349.361 -8.37,-479.447 -5.79,-5.582 -11.73,-10.942 -17.84,-16.067 l -20.54,-17.234 z m 35.97,34.734 -17.98,-17.367 16.07,-19.149 c 7,5.875 13.81,12.012 20.43,18.403 154.57,149.265 158.87,395.574 9.6,550.152 -149.26,154.57 -395.573,158.86 -550.143,9.6 -6.621,-6.39 -12.988,-12.99 -19.106,-19.78 l 18.579,-16.73 17.984,17.37 -0.313,0.32 -17.367,17.98 -17.98,-17.37 -0.934,-0.9 17.367,-17.98 16.907,18.42 C 476.609,1188.54 242.738,1186 94.5234,1042.87 -53.6836,899.746 -64.3906,666.113 68.9297,510.258 l 1.0117,-1.117 0.4414,-0.457 17.9844,17.367 -18.9649,-16.285 c 4.9922,-5.817 10.1641,-11.496 15.5196,-17.039 5.3554,-5.547 10.8515,-10.914 16.4881,-16.11 l 16.938,18.387 -17.981,-17.367 475.387,-492.2776 17.367,-17.9844 17.981,17.3672 523.788,505.8128 17.98,17.367 -17.37,17.98 z" /></clipPath><clipPath
       id="clipPath32"
       clipPathUnits="userSpaceOnUse"><path
         style="clip-rule:evenodd"
         id="path30"
         d="m 1116.59,509.504 0.93,-0.965 L 593.738,2.72656 118.348,495.004 c -5.258,4.848 -10.41,9.875 -15.442,15.086 -5.0349,5.215 -9.8787,10.535 -14.5388,15.961 l -0.4414,0.457 c -124.2031,145.199 -115.3086,363.887 23.9652,498.382 139.273,134.49 358.136,135.75 498.886,6.53 l 0.93,0.9 0.313,-0.32 c 5.703,6.33 11.668,12.51 17.894,18.52 144.637,139.68 375.126,135.66 514.796,-8.98 139.68,-144.642 135.65,-375.122 -8.99,-514.798 -6.22,-6.012 -12.61,-11.758 -19.13,-17.238 z" /></clipPath><clipPath
       id="clipPath38"
       clipPathUnits="userSpaceOnUse"><path
         id="path36"
         d="M 0,0 H 1260 V 1160 H 0 Z" /></clipPath><clipPath
       id="clipPath48"
       clipPathUnits="userSpaceOnUse"><path
         style="clip-rule:evenodd"
         id="path46"
         d="m 1116.59,509.504 0.93,-0.965 L 593.738,2.72656 118.348,495.004 c -5.258,4.848 -10.41,9.875 -15.442,15.086 -5.0349,5.215 -9.8787,10.535 -14.5388,15.961 l -0.4414,0.457 c -124.2031,145.199 -115.3086,363.887 23.9652,498.382 139.273,134.49 358.136,135.75 498.886,6.53 l 0.93,0.9 0.313,-0.32 c 5.703,6.33 11.668,12.51 17.894,18.52 144.637,139.68 375.126,135.66 514.796,-8.98 139.68,-144.642 135.65,-375.122 -8.99,-514.798 -6.22,-6.012 -12.61,-11.758 -19.13,-17.238 z" /></clipPath><clipPath
       id="clipPath54"
       clipPathUnits="userSpaceOnUse"><path
         id="path52"
         d="M 0,0 H 1260 V 1160 H 0 Z" /></clipPath></defs><g
     transform="matrix(1.3333333,0,0,-1.3333333,0,154.66667)"
     id="g10"><g
       transform="scale(0.1)"
       id="g12"><g
         id="g14"><g
           clip-path="url(#clipPath20)"
           id="g16"><g
             clip-path="url(#clipPath26)"
             id="g22"><g
               clip-path="url(#clipPath32)"
               id="g28"><g
                 clip-path="url(#clipPath38)"
                 id="g34"><path
                   id="path40"
                   style="fill:#ffffff;fill-opacity:1;fill-rule:nonzero;stroke:none"
                   d="m 1116.59,509.504 0.93,-0.965 L 593.738,2.72656 118.348,495.004 c -5.258,4.848 -10.41,9.875 -15.442,15.086 -5.0349,5.215 -9.8787,10.535 -14.5388,15.961 l -0.4414,0.457 c -124.2031,145.199 -115.3086,363.887 23.9652,498.382 139.273,134.49 358.136,135.75 498.886,6.53 l 0.93,0.9 0.313,-0.32 c 5.703,6.33 11.668,12.51 17.894,18.52 144.637,139.68 375.126,135.66 514.796,-8.98 139.68,-144.642 135.65,-375.122 -8.99,-514.798 -6.22,-6.012 -12.61,-11.758 -19.13,-17.238" /></g></g></g></g></g><g
         id="g42"><g
           clip-path="url(#clipPath48)"
           id="g44"><g
             clip-path="url(#clipPath54)"
             id="g50"><path
               id="path56"
               style="fill:none;stroke:#000000;stroke-width:100;stroke-linecap:butt;stroke-linejoin:miter;stroke-miterlimit:10;stroke-dasharray:none;stroke-opacity:1"
               d="m 1116.59,509.504 0.93,-0.965 L 593.738,2.72656 118.348,495.004 c -5.258,4.848 -10.41,9.875 -15.442,15.086 -5.0349,5.215 -9.8787,10.535 -14.5388,15.961 l -0.4414,0.457 c -124.2031,145.199 -115.3086,363.887 23.9652,498.382 139.273,134.49 358.136,135.75 498.886,6.53 l 0.93,0.9 0.313,-0.32 c 5.703,6.33 11.668,12.51 17.894,18.52 144.637,139.68 375.126,135.66 514.796,-8.98 139.68,-144.642 135.65,-375.122 -8.99,-514.798 -6.22,-6.012 -12.61,-11.758 -19.13,-17.238 z" /></g></g></g><path
         id="path58"
         style="fill:none;stroke:#000000;stroke-width:30;stroke-linecap:square;stroke-linejoin:miter;stroke-miterlimit:10;stroke-dasharray:none;stroke-opacity:1"
         d="M 55,705 H 205" /><path
         id="path60"
         style="fill:none;stroke:#000000;stroke-width:30;stroke-linecap:square;stroke-linejoin:miter;stroke-miterlimit:10;stroke-dasharray:none;stroke-opacity:1"
         d="m 715,725 70,230" /><path
         id="path62"
         style="fill:none;stroke:#000000;stroke-width:30;stroke-linecap:square;stroke-linejoin:miter;stroke-miterlimit:10;stroke-dasharray:none;stroke-opacity:1"
         d="m 205,705 70,230" /><path
         id="path64"
         style="fill:none;stroke:#000000;stroke-width:30;stroke-linecap:square;stroke-linejoin:miter;stroke-miterlimit:10;stroke-dasharray:none;stroke-opacity:1"
         d="m 395,535 40,190" /><path
         id="path66"
         style="fill:none;stroke:#000000;stroke-width:30;stroke-linecap:square;stroke-linejoin:miter;stroke-miterlimit:10;stroke-dasharray:none;stroke-opacity:1"
         d="m 935,475 50,270" /><path
         id="path68"
         style="fill:none;stroke:#000000;stroke-width:30;stroke-linecap:square;stroke-linejoin:miter;stroke-miterlimit:10;stroke-dasharray:none;stroke-opacity:1"
         d="M 445,725 H 705" /><path
         id="path70"
         style="fill:none;stroke:#000000;stroke-width:30;stroke-linecap:square;stroke-linejoin:miter;stroke-miterlimit:10;stroke-dasharray:none;stroke-opacity:1"
         d="m 995,745 h 243.31" /><path
         id="path72"
         style="fill:none;stroke:#000000;stroke-width:30;stroke-linecap:square;stroke-linejoin:miter;stroke-miterlimit:10;stroke-dasharray:none;stroke-opacity:1"
         d="M 795,955 925,475" /><path
         id="path74"
         style="fill:none;stroke:#000000;stroke-width:30;stroke-linecap:square;stroke-linejoin:miter;stroke-miterlimit:10;stroke-dasharray:none;stroke-opacity:1"
         d="M 285,935 385,535" /></g></g></svg>