<?xml version="1.0" encoding="utf-8"?>
<!-- Generator: Adobe Illustrator 21.0.0, SVG Export Plug-In . SVG Version: 6.00 Build 0)  -->
<svg version="1.1" id="Layer_1" xmlns="http://www.w3.org/2000/svg" xmlns:xlink="http://www.w3.org/1999/xlink" x="0px" y="0px"
	 viewBox="0 0 150 150" style="enable-background:new 0 0 150 150;" xml:space="preserve">
<path d="M78,53.1c-1.8-1.8-1.8-4.8,0-6.6c0.9-0.9,2.1-1.4,3.3-1.4s2.4,0.5,3.3,1.4l27.7,28.4l-27.7,28.4c-1.8,1.8-4.8,1.8-6.6,0
	c-1.8-1.8-1.8-4.8,0-6.6l16.9-17H4.7c-2.6,0-4.7-2.1-4.7-4.7s2.1-4.7,4.7-4.7h90.6L78,53.1L78,53.1z M140.6,150H56.3
	c-5.2,0-9.4-4.2-9.4-9.4V98.4h9.4v36.5c0,3.1,2.5,5.7,5.7,5.7h72.7c3.1,0,5.7-2.5,5.7-5.7l0.1-119.8c0-3.1-2.5-5.7-5.7-5.7H62
	c-3.1,0-5.7,2.5-5.7,5.7v36.7l-9.4,0V9.4c0-5.2,4.2-9.4,9.4-9.4h84.3c5.2,0,9.4,4.2,9.4,9.4v131.2C150,145.8,145.8,150,140.6,150
	L140.6,150L140.6,150z"/>
</svg>
