<?xml version="1.0" encoding="utf-8"?>
<!-- Generator: Adobe Illustrator 21.0.0, SVG Export Plug-In . SVG Version: 6.00 Build 0)  -->
<svg version="1.1" id="Layer_1" xmlns="http://www.w3.org/2000/svg" xmlns:xlink="http://www.w3.org/1999/xlink" x="0px" y="0px"
	 viewBox="0 0 142 208.5" style="enable-background:new 0 0 142 208.5;" xml:space="preserve">
<title>Desktop</title>
<desc>Created with Sketch.</desc>
<path d="M98.7,53.4c-2.7-12.9-14.1-21.9-26.8-21.9c-1.8,0-3.7,0.2-5.6,0.6c-0.3,0.1-0.5,0.1-0.8,0.2l0,0L21.1,42.8
	C6.7,46.2-2.3,60.2,0.5,74.7l21.7,111.6c1.4,7.2,5.5,13.4,11.6,17.5c6.1,4.1,13.4,5.6,20.6,4.2l46.2-9c7.2-1.4,13.4-5.5,17.5-11.6
	c4.1-6.1,5.6-13.4,4.2-20.6l-0.1-0.3L98.7,53.4z M43.3,119.8c-2.5,0.5-4.9-1.1-5.4-3.6l-6.1-31.3c-0.5-2.5,1.1-4.9,3.6-5.4
	c2.5-0.5,4.9,1.1,5.4,3.6l6.1,31.3C47.4,116.9,45.8,119.4,43.3,119.8z M47.7,61.4c-5.1,0-9.2-4.1-9.2-9.2c0-5.1,4.1-9.2,9.2-9.2
	c5.1,0,9.2,4.1,9.2,9.2C56.9,57.3,52.8,61.4,47.7,61.4z M68.3,111.8c-2.5,0.5-4.9-1.1-5.4-3.6l-6.1-31.3c-0.5-2.5,1.1-4.9,3.6-5.4
	c2.5-0.5,4.9,1.1,5.4,3.6l6.1,31.3C72.4,108.9,70.8,111.4,68.3,111.8z M85.3,180.8c-2.5,0.5-4.9-1.1-5.4-3.6l-6.1-31.3
	c-0.5-2.5,1.1-4.9,3.6-5.4c2.5-0.5,4.9,1.1,5.4,3.6l6.1,31.3C89.4,177.9,87.8,180.4,85.3,180.8z M104.8,171.5
	c-2.4,0.5-4.8-1.1-5.3-3.6L79.5,64.7c-0.5-2.4,1.1-4.8,3.6-5.3c2.4-0.5,4.8,1.1,5.3,3.6l20.1,103.2
	C108.9,168.7,107.3,171.1,104.8,171.5z"/>
<path d="M132.6,130.6l-17.7-17.7l10.8,52.4c0,0.1,0.1,0.3,0.1,0.4c1.2,6.3,0.5,12.5-1.7,18c1.6-1.1,3.1-2.3,4.5-3.7l4-4
	C145.1,163.4,145.1,143.1,132.6,130.6z"/>
<g>
	
		<ellipse id="Oval-Copy-4_1_" transform="matrix(0.9345 -0.3558 0.3558 0.9345 -7.9231 16.3487)" cx="40.5" cy="29.7" rx="4.6" ry="4.6"/>
	
		<ellipse id="Oval-Copy-4_2_" transform="matrix(0.9345 -0.3558 0.3558 0.9345 -3.6158 14.6721)" cx="38.1" cy="17.2" rx="4.6" ry="4.6"/>
	
		<ellipse id="Oval-Copy-4_3_" transform="matrix(0.9345 -0.3558 0.3558 0.9345 0.6915 12.9956)" cx="35.7" cy="4.6" rx="4.6" ry="4.6"/>
</g>
</svg>
