<?xml version="1.0" encoding="utf-8"?>
<!-- Generator: Adobe Illustrator 21.0.0, SVG Export Plug-In . SVG Version: 6.00 Build 0)  -->
<svg version="1.1" id="Layer_1" xmlns="http://www.w3.org/2000/svg" xmlns:xlink="http://www.w3.org/1999/xlink" x="0px" y="0px"
	 viewBox="0 0 200 306" style="enable-background:new 0 0 200 306;" xml:space="preserve">
<g>
	<path d="M55.1,246l2-9.5c-0.3-0.8-0.4-1.6-0.4-2.5v-99c0-4.1,3.4-7.5,7.5-7.5s7.5,3.4,7.5,7.5v30.8l5.9-28.4
		c3.2-15.3,15.4-26.5,29.9-29c-5.4-6.1-13.1-9.9-21.6-9.9H42.4c-16.4,0-29.7,14.1-29.7,31.5v109c0,17.4,13.3,31.5,29.7,31.5h16.1
		C54.7,263.3,53.3,254.7,55.1,246z M64.1,105.1c4.7,0,8.4,3.8,8.4,8.4s-3.8,8.4-8.4,8.4s-8.4-3.8-8.4-8.4S59.5,105.1,64.1,105.1z
		 M44.6,234.1c0,4.1-3.4,7.5-7.5,7.5s-7.5-3.4-7.5-7.5v-99c0-4.1,3.4-7.5,7.5-7.5s7.5,3.4,7.5,7.5V234.1z"/>
	<path d="M121.4,116.6l42.5,8.8l0,0c16.1,3.3,26.3,19.8,22.7,36.9l-22,106.7l0,0c-3.5,17-19.4,28.2-35.5,24.9L86.6,285l0,0
		c-16.1-3.3-26.3-19.8-22.7-36.9l22-106.7l0,0C89.4,124.4,105.3,113.2,121.4,116.6L121.4,116.6z M96.1,249.7l20-97
		c0.8-4-1.8-8-5.8-8.9h0c-4-0.8-8,1.8-8.9,5.8l-20,97c-0.8,4,1.8,8,5.8,8.9h0C91.3,256.4,95.3,253.7,96.1,249.7z M122.6,255.2l20-97
		c0.8-4-1.8-8-5.8-8.9h0c-4-0.8-8,1.8-8.9,5.8l-20,97c-0.8,4,1.8,8,5.8,8.9l0,0C117.8,261.8,121.8,259.2,122.6,255.2z M149,260.6
		l20-97c0.8-4-1.8-8-5.8-8.9h0c-4-0.8-8,1.8-8.9,5.8l-20,97c-0.8,4,1.8,8,5.8,8.9l0,0C144.2,267.3,148.2,264.6,149,260.6z
		 M141.3,127.4c-4.6-0.9-9,2-10,6.6s2,9,6.6,10c4.6,0.9,9-2,10-6.6C148.8,132.8,145.8,128.3,141.3,127.4z"/>
	<circle cx="62.7" cy="88.5" r="5"/>
	<circle cx="65.9" cy="45.6" r="5"/>
	<circle cx="62.5" cy="67" r="5"/>
	<circle cx="146.2" cy="93" r="5"/>
	<circle cx="100.7" cy="17.8" r="5"/>
	<circle cx="120" cy="16.6" r="5"/>
	<circle cx="78.9" cy="28.4" r="5"/>
	<circle cx="150.2" cy="41.8" r="5"/>
	<circle cx="149.6" cy="75.9" r="5"/>
	<circle cx="139.7" cy="24.8" r="5"/>
	<circle cx="154.3" cy="57.8" r="5"/>
	<circle cx="146.5" cy="110.4" r="5"/>
</g>
</svg>
