<?xml version="1.0" encoding="utf-8"?>
<!-- Generator: Adobe Illustrator 21.0.0, SVG Export Plug-In . SVG Version: 6.00 Build 0)  -->
<svg version="1.1" id="Layer_1" xmlns="http://www.w3.org/2000/svg" xmlns:xlink="http://www.w3.org/1999/xlink" x="0px" y="0px"
	 viewBox="0 0 150.7 216.7" style="enable-background:new 0 0 150.7 216.7;" xml:space="preserve">
<title>Desktop Copy 4</title>
<desc>Created with Sketch.</desc>
<path d="M149.3,166.4c0-0.1-0.1-0.2-0.1-0.4l-28.4-88.9l1.3,107.5c0,10.7-4.6,20.4-11.9,27.2l17.8-5.5
	C144.9,201.2,154.5,183.3,149.3,166.4z"/>
<path d="M110.2,184.3l-1.4-113.8c-0.2-17.7-14.7-31.8-32.4-31.6c-0.3,0-0.6,0-0.9,0l-44.9,1.9c-17.1,0.7-30.7,14.8-30.7,32v111.9
	c0,17.7,14.3,32,32,32h46.3c17.7,0,32-14.3,32-32C110.2,184.5,110.2,184.4,110.2,184.3z M55.2,66.8c-4.6,0-8.4-3.8-8.4-8.4
	s3.8-8.4,8.4-8.4s8.4,3.8,8.4,8.4S59.9,66.8,55.2,66.8z"/>
<g>
	
		<ellipse id="path-3" transform="matrix(1.745324e-02 -0.9998 0.9998 1.745324e-02 23.954 84.6554)" cx="55" cy="30.1" rx="4.6" ry="4.6"/>
</g>
<ellipse id="Oval-Copy-3" transform="matrix(1.745324e-02 -0.9998 0.9998 1.745324e-02 36.722 72.1083)" cx="55" cy="17.4" rx="4.6" ry="4.6"/>
<ellipse id="Oval-Copy-4" transform="matrix(1.745324e-02 -0.9998 0.9998 1.745324e-02 49.4901 59.5611)" cx="55" cy="4.6" rx="4.6" ry="4.6"/>
</svg>
