<?xml version="1.0" encoding="utf-8"?>
<!-- Generator: Adobe Illustrator 21.0.0, SVG Export Plug-In . SVG Version: 6.00 Build 0)  -->
<svg version="1.1" id="Layer_1" xmlns="http://www.w3.org/2000/svg" xmlns:xlink="http://www.w3.org/1999/xlink" x="0px" y="0px"
	 viewBox="0 0 143.8 221.8" style="enable-background:new 0 0 143.8 221.8;" xml:space="preserve">
<title>Desktop Copy 4</title>
<desc>Created with Sketch.</desc>
<path d="M142.4,171.5c0-0.1-0.1-0.2-0.1-0.4l-28.4-88.9l1.3,107.5c0,10.7-4.6,20.4-11.9,27.2l17.8-5.5
	C138,206.3,147.6,188.4,142.4,171.5z"/>
<path d="M110.2,189.4l-1.4-113.8C108.6,57.9,94.1,43.8,76.4,44c-0.3,0-0.6,0-0.9,0l-44.9,1.9c-17.1,0.7-30.7,14.8-30.7,32v111.9
	c0,17.7,14.3,32,32,32h46.3c17.7,0,32-14.3,32-32C110.2,189.6,110.2,189.5,110.2,189.4z M55.2,71.9c-4.6,0-8.4-3.8-8.4-8.4
	s3.8-8.4,8.4-8.4c4.6,0,8.4,3.8,8.4,8.4S59.9,71.9,55.2,71.9z"/>
<g>
	
		<ellipse id="path-3" transform="matrix(1.745241e-02 -0.9998 0.9998 1.745241e-02 16.7151 92.6647)" cx="55.5" cy="37.8" rx="4.6" ry="4.6"/>
</g>
<ellipse id="Oval-Copy-3" transform="matrix(1.745241e-02 -0.9998 0.9998 1.745241e-02 30.6925 77.3339)" cx="54.7" cy="23.1" rx="4.6" ry="4.6"/>
<ellipse id="Oval-Copy-4" transform="matrix(1.745241e-02 -0.9998 0.9998 1.745241e-02 49.6656 59.775)" cx="55.2" cy="4.6" rx="4.6" ry="4.6"/>
</svg>
