<?xml version="1.0" encoding="utf-8"?>
<!-- Generator: Adobe Illustrator 21.0.0, SVG Export Plug-In . SVG Version: 6.00 Build 0)  -->
<svg version="1.1" id="Layer_1" xmlns="http://www.w3.org/2000/svg" xmlns:xlink="http://www.w3.org/1999/xlink" x="0px" y="0px"
	 viewBox="0 0 250 250" style="enable-background:new 0 0 250 250;" xml:space="preserve">
<path d="M155.1,90.2H94.9c-4.4,0-8-3.6-8-8v-37c0-4.4,3.6-8,8-8h60.2c4.4,0,8,3.6,8,8v37C163.1,86.6,159.5,90.2,155.1,90.2z
	 M154.5,75.2V52.1c0-2.8-2.2-5-5-5h-49c-2.8,0-5,2.2-5,5v23.1c0,2.8,2.2,5,5,5h49C152.2,80.2,154.5,78,154.5,75.2z"/>
<path d="M215.5,212.8h-181c-11,0-20-9-20-20V89.3c0-11,9-20,20-20h181c11,0,20,9,20,20v103.5C235.5,203.8,226.5,212.8,215.5,212.8z
	 M171.8,137.7H78.2v14.6h93.7V137.7z"/>
</svg>
